<svg id="svg7030" xmlns="http://www.w3.org/2000/svg" viewBox="0 0 268.65 99.25"><defs><style>.cls-1{fill:#ed1b2d;}.cls-2{fill:#4da6e2;}</style></defs><title>priceco_logo_mini</title><g id="layer1"><g id="g16522-2-3-9-1-0"><g id="text3472-1-0-81-2-4-50-5-29-9-8"><path id="path7060" class="cls-1" d="M19.92,80a0.9,0.9,0,0,0,.64-0.22,0.88,0.88,0,0,0,.24-0.66V72a0.78,0.78,0,0,0-.89-0.89H15.13V66.55h5.26q7.15-.08,11.36-3.8a13.06,13.06,0,0,0,4.31-10.09A15.29,15.29,0,0,0,31.94,42a14.56,14.56,0,0,0-10.72-4.41H0.89a0.78,0.78,0,0,0-.89.89v7.15a0.87,0.87,0,0,0,.24.66,0.91,0.91,0,0,0,.64.22H4.67V71.1H0.89A0.78,0.78,0,0,0,0,72v7.15a0.87,0.87,0,0,0,.24.66A0.91,0.91,0,0,0,.89,80h19ZM15.13,58.33V46.51h4.08a6.45,6.45,0,0,1,4.55,1.59,6.06,6.06,0,0,1,1.71,4.56,5.61,5.61,0,0,1-1.35,4.08q-1.41,1.55-5,1.6h-4Z" transform="translate(0 0)"/><path id="path7062" class="cls-1" d="M76.81,80a0.9,0.9,0,0,0,.64-0.22,0.88,0.88,0,0,0,.24-0.66V72a0.78,0.78,0,0,0-.89-0.89h-4l-3.13-5.44a12.26,12.26,0,0,0-1-1.48,13.08,13.08,0,0,0-1-1.12,11.94,11.94,0,0,0,4.65-4.48A13.19,13.19,0,0,0,74,51.89a14,14,0,0,0-4.12-10.28q-4-3.91-10.72-4H38.81a0.78,0.78,0,0,0-.89.89v7.15a0.87,0.87,0,0,0,.24.66,0.91,0.91,0,0,0,.64.22h3.78V71.1H38.81a0.78,0.78,0,0,0-.89.89v7.15a0.87,0.87,0,0,0,.24.66,0.91,0.91,0,0,0,.64.22h19a0.9,0.9,0,0,0,.64-0.22,0.88,0.88,0,0,0,.24-0.66V72a0.78,0.78,0,0,0-.89-0.89H53.05V65.19h2.78a3.45,3.45,0,0,1,2.35.84,5.23,5.23,0,0,1,1.2,1.64l4,8.28a9.55,9.55,0,0,0,2,3A4,4,0,0,0,68.18,80h8.63ZM53.05,57V46.51H56.6a7.94,7.94,0,0,1,5,1.35,5.17,5.17,0,0,1,1.8,4.32,4.11,4.11,0,0,1-1.63,3.64A9,9,0,0,1,56.6,57H53.05Z" transform="translate(0 0)"/><path id="path7064" class="cls-1" d="M99,80a0.9,0.9,0,0,0,.64-0.22,0.88,0.88,0,0,0,.24-0.66V72A0.78,0.78,0,0,0,99,71.1H95.26V46.51H99a0.9,0.9,0,0,0,.64-0.22,0.88,0.88,0,0,0,.24-0.66V38.47A0.78,0.78,0,0,0,99,37.58H81a0.78,0.78,0,0,0-.89.89v7.15a0.87,0.87,0,0,0,.24.66,0.91,0.91,0,0,0,.64.22H84.8V71.1H81a0.78,0.78,0,0,0-.89.89v7.15a0.87,0.87,0,0,0,.24.66A0.91,0.91,0,0,0,81,80H99Z" transform="translate(0 0)"/><path id="path7066" class="cls-1" d="M137.34,63.35a0.71,0.71,0,0,0-1.18.24,14.8,14.8,0,0,1-1.43,2.17A11.09,11.09,0,0,1,131,68.69a15.52,15.52,0,0,1-7,1.46A10.35,10.35,0,0,1,116.71,67a11.6,11.6,0,0,1-3.25-8.3q0.07-5.53,2.81-8.51a9.46,9.46,0,0,1,7.24-3,10.3,10.3,0,0,1,6.42,2q2.2,1.86,2.21,3.61v0.59a0.87,0.87,0,0,0,.24.66,0.91,0.91,0,0,0,.64.22h8.81a0.9,0.9,0,0,0,.64-0.22,0.88,0.88,0,0,0,.24-0.66v-15a0.78,0.78,0,0,0-.89-0.89h-7.63a1,1,0,0,0-.69.22,0.77,0.77,0,0,0-.2.66l0.18,3.13a9.73,9.73,0,0,0-3.81-3,16.39,16.39,0,0,0-7-1.34,21.91,21.91,0,0,0-10,2.34,18.66,18.66,0,0,0-7.58,7.08,22.94,22.94,0,0,0-3,11.92q0.25,10.52,6.33,16.17a21.54,21.54,0,0,0,15.07,5.7q7.67-.19,12-2.86a18.86,18.86,0,0,0,6.1-5.46,17.27,17.27,0,0,0,1.9-3.38,1.35,1.35,0,0,0,.15-0.72,0.87,0.87,0,0,0-.38-0.58Z" transform="translate(0 0)"/><path id="path7068" class="cls-1" d="M180.33,80A0.9,0.9,0,0,0,181,79.8a0.88,0.88,0,0,0,.24-0.66V65.48a0.78,0.78,0,0,0-.89-0.89H173a0.78,0.78,0,0,0-.89.89V71.1H160.76v-7.8H170a0.9,0.9,0,0,0,.64-0.22,0.88,0.88,0,0,0,.24-0.66V55.26a0.78,0.78,0,0,0-.89-0.89h-9.22V46.51h11.41v5.62a0.78,0.78,0,0,0,.89.89h7.27a0.78,0.78,0,0,0,.89-0.89V38.47A0.87,0.87,0,0,0,181,37.8a0.91,0.91,0,0,0-.64-0.22H146.52a0.78,0.78,0,0,0-.89.89v7.15a0.87,0.87,0,0,0,.24.66,0.91,0.91,0,0,0,.64.22h3.78V71.1h-3.78a0.78,0.78,0,0,0-.89.89v7.15a0.87,0.87,0,0,0,.24.66,0.91,0.91,0,0,0,.64.22h33.81Z" transform="translate(0 0)"/><path id="path7070" class="cls-1" d="M218.26,63.35a0.71,0.71,0,0,0-1.18.24,14.79,14.79,0,0,1-1.43,2.17,11.09,11.09,0,0,1-3.69,2.92,15.52,15.52,0,0,1-7,1.46A10.35,10.35,0,0,1,197.63,67a11.6,11.6,0,0,1-3.25-8.3q0.07-5.53,2.81-8.51a9.46,9.46,0,0,1,7.24-3,10.3,10.3,0,0,1,6.42,2q2.2,1.86,2.21,3.61v0.59a0.87,0.87,0,0,0,.24.66,0.91,0.91,0,0,0,.64.22h8.81a0.9,0.9,0,0,0,.64-0.22,0.88,0.88,0,0,0,.24-0.66v-15a0.78,0.78,0,0,0-.89-0.89h-7.62a1,1,0,0,0-.69.22,0.77,0.77,0,0,0-.2.66l0.18,3.13a9.73,9.73,0,0,0-3.81-3,16.39,16.39,0,0,0-7-1.34,21.91,21.91,0,0,0-10,2.34,18.66,18.66,0,0,0-7.58,7.08,22.94,22.94,0,0,0-3,11.92q0.25,10.52,6.33,16.17a21.54,21.54,0,0,0,15.07,5.7q7.67-.19,12-2.86a18.86,18.86,0,0,0,6.1-5.46,17.26,17.26,0,0,0,1.9-3.38,1.35,1.35,0,0,0,.15-0.72,0.87,0.87,0,0,0-.38-0.58Z" transform="translate(0 0)"/><path id="path7072" class="cls-1" d="M247.14,80.44q9.3-.09,15.3-5.81t6.21-16.06a21.67,21.67,0,0,0-3.27-11.92,19.89,19.89,0,0,0-8-7.08,23.41,23.41,0,0,0-20.4,0,19.89,19.89,0,0,0-8,7.08,21.66,21.66,0,0,0-3.27,11.92q0.21,9.78,6.21,15.75a21.38,21.38,0,0,0,15.3,6.13h0Zm0-9.75a9.46,9.46,0,0,1-7.35-3.47,13.1,13.1,0,0,1-2.87-8.47Q237,53.22,239.8,50a9.4,9.4,0,0,1,7.28-3.3A9.56,9.56,0,0,1,254.44,50q2.84,3.21,2.93,8.78a13.1,13.1,0,0,1-2.87,8.47,9.46,9.46,0,0,1-7.35,3.47h0Z" transform="translate(0 0)"/></g><path id="rect16437-4-8-94-4-8" class="cls-2" d="M88.91,0A3.92,3.92,0,0,0,85,3.93v23a3.92,3.92,0,0,0,3.93,3.93h2.33a3.92,3.92,0,0,0,3.93-3.93v-23A3.92,3.92,0,0,0,91.25,0H88.91ZM58.79,7.08A3.92,3.92,0,0,0,56,8.23L54.32,9.86a3.93,3.93,0,0,0,0,5.57L70.62,31.68a3.93,3.93,0,0,0,5.57,0L77.82,30a3.93,3.93,0,0,0,0-5.57L61.53,8.23A3.83,3.83,0,0,0,58.79,7.08Zm62.63,0a3.92,3.92,0,0,0-2.78,1.15L102.38,24.48a3.93,3.93,0,0,0,0,5.57L104,31.68a3.93,3.93,0,0,0,5.57,0l16.25-16.25a3.93,3.93,0,0,0,0-5.57L124.2,8.23A3.92,3.92,0,0,0,121.41,7.08Z" transform="translate(0 0)"/><g id="flowRoot6068-1-22-7-0-5-5-3"><path id="path7075" d="M54.69,96.67V87.14h6v1.47H56.42V91h3.81v1.47H56.42v4.15H54.69Z" transform="translate(0 0)"/><path id="path7077" d="M68.26,93.06A4.65,4.65,0,0,1,68,94.62a3.43,3.43,0,0,1-.7,1.2,3.16,3.16,0,0,1-1.09.77,3.53,3.53,0,0,1-1.41.27,3.47,3.47,0,0,1-1.4-.27,3.17,3.17,0,0,1-1.09-.77,3.52,3.52,0,0,1-.71-1.2,4.53,4.53,0,0,1-.25-1.55,4.48,4.48,0,0,1,.25-1.55,3.47,3.47,0,0,1,.71-1.19,3.16,3.16,0,0,1,1.09-.76,3.52,3.52,0,0,1,1.39-.27,3.57,3.57,0,0,1,1.39.27,3.08,3.08,0,0,1,1.09.76A3.54,3.54,0,0,1,68,91.52a4.47,4.47,0,0,1,.25,1.55h0Zm-1.7,0a2.81,2.81,0,0,0-.46-1.7,1.63,1.63,0,0,0-2.57,0,2.81,2.81,0,0,0-.46,1.7,2.86,2.86,0,0,0,.46,1.72,1.62,1.62,0,0,0,2.57,0A2.86,2.86,0,0,0,66.56,93.06Z" transform="translate(0 0)"/><path id="path7079" d="M76.07,93.06a4.65,4.65,0,0,1-.25,1.55,3.43,3.43,0,0,1-.7,1.2,3.16,3.16,0,0,1-1.09.77,3.53,3.53,0,0,1-1.41.27,3.47,3.47,0,0,1-1.4-.27,3.17,3.17,0,0,1-1.09-.77,3.53,3.53,0,0,1-.71-1.2,4.53,4.53,0,0,1-.25-1.55,4.48,4.48,0,0,1,.25-1.55,3.47,3.47,0,0,1,.71-1.19,3.16,3.16,0,0,1,1.09-.76,3.52,3.52,0,0,1,1.39-.27,3.57,3.57,0,0,1,1.39.27,3.08,3.08,0,0,1,1.09.76,3.54,3.54,0,0,1,.71,1.19,4.47,4.47,0,0,1,.25,1.55h0Zm-1.7,0a2.81,2.81,0,0,0-.46-1.7,1.63,1.63,0,0,0-2.57,0,2.81,2.81,0,0,0-.46,1.7,2.86,2.86,0,0,0,.46,1.72,1.62,1.62,0,0,0,2.57,0A2.86,2.86,0,0,0,74.36,93.06Z" transform="translate(0 0)"/><path id="path7081" d="M78.67,93.05a2.61,2.61,0,0,0,.52,1.72,1.78,1.78,0,0,0,1.44.63,5.71,5.71,0,0,0,.68,0l0.46-.08V91.17a2.57,2.57,0,0,0-.58-0.28,2.28,2.28,0,0,0-.78-0.13,1.49,1.49,0,0,0-1.33.62A3,3,0,0,0,78.67,93.05Zm4.77,3.4a10.05,10.05,0,0,1-1.24.27,9.63,9.63,0,0,1-1.57.12,4.2,4.2,0,0,1-1.53-.26A3.18,3.18,0,0,1,78,95.83a3.3,3.3,0,0,1-.73-1.18A4.51,4.51,0,0,1,77,93.09a5.27,5.27,0,0,1,.21-1.55,3.38,3.38,0,0,1,.63-1.19,2.79,2.79,0,0,1,1-.76,3.26,3.26,0,0,1,1.36-.27,3.11,3.11,0,0,1,.92.12,4.12,4.12,0,0,1,.69.27V86.28L83.44,86V96.45Z" transform="translate(0 0)"/><path id="path7083" d="M90.86,86a4.42,4.42,0,0,1,1,.1,5.9,5.9,0,0,1,.66.19l-0.32,1.37a2.61,2.61,0,0,0-.54-0.18A3,3,0,0,0,91,87.42a1.72,1.72,0,0,0-.67.12,1.1,1.1,0,0,0-.44.32,1.24,1.24,0,0,0-.23.5,2.8,2.8,0,0,0-.07.64v0.48H92.2v1.39H89.59v5.8H87.93V89a3.09,3.09,0,0,1,.73-2.18,2.85,2.85,0,0,1,2.2-.79h0Z" transform="translate(0 0)"/><path id="path7085" d="M97.12,91a5.38,5.38,0,0,0-.57-0.14,4.19,4.19,0,0,0-.85-0.08,3.41,3.41,0,0,0-.58.05l-0.43.1v5.76H93V89.82a9.1,9.1,0,0,1,1.2-.34,7.47,7.47,0,0,1,1.6-.16l0.38,0,0.44,0.05,0.43,0.08,0.33,0.09Z" transform="translate(0 0)"/><path id="path7087" d="M97.74,93.11A4.52,4.52,0,0,1,98,91.44a3.5,3.5,0,0,1,.75-1.19,3.1,3.1,0,0,1,1.07-.71,3.32,3.32,0,0,1,1.24-.24,3,3,0,0,1,2.32.92,4,4,0,0,1,.83,2.75c0,0.09,0,.19,0,0.31a2.72,2.72,0,0,1,0,.31H99.46a1.9,1.9,0,0,0,.61,1.34,2.32,2.32,0,0,0,1.57.47,5.16,5.16,0,0,0,1.11-.11,4.62,4.62,0,0,0,.79-0.23l0.22,1.36a2.68,2.68,0,0,1-.38.14,5.5,5.5,0,0,1-.55.14l-0.67.1a6.38,6.38,0,0,1-.73,0,4.42,4.42,0,0,1-1.65-.28,3.07,3.07,0,0,1-1.15-.78A3.21,3.21,0,0,1,98,94.6a4.83,4.83,0,0,1-.22-1.49h0Zm4.82-.74a2.19,2.19,0,0,0-.1-0.65,1.57,1.57,0,0,0-.28-0.54,1.35,1.35,0,0,0-.45-0.36,1.45,1.45,0,0,0-.64-0.13,1.49,1.49,0,0,0-.67.14,1.52,1.52,0,0,0-.49.38,1.74,1.74,0,0,0-.31.54,2.89,2.89,0,0,0-.15.62h3.09Z" transform="translate(0 0)"/><path id="path7089" d="M107.37,95.47a2.19,2.19,0,0,0,1-.16,0.56,0.56,0,0,0,.3-0.54,0.7,0.7,0,0,0-.32-0.59,4.74,4.74,0,0,0-1.06-.51,8.43,8.43,0,0,1-.83-0.35,2.83,2.83,0,0,1-.65-0.43,1.78,1.78,0,0,1-.43-0.6,2.08,2.08,0,0,1-.16-0.86,1.87,1.87,0,0,1,.73-1.56,3.13,3.13,0,0,1,2-.57,6.05,6.05,0,0,1,1.21.12,5.83,5.83,0,0,1,.87.23L109.65,91a4,4,0,0,0-.7-0.23,4.26,4.26,0,0,0-1-.1,1.72,1.72,0,0,0-.82.17,0.57,0.57,0,0,0-.32.53,0.77,0.77,0,0,0,.06.32,0.69,0.69,0,0,0,.21.25,2.19,2.19,0,0,0,.4.23,6,6,0,0,0,.6.24,9.26,9.26,0,0,1,1,.43,2.72,2.72,0,0,1,.68.48,1.64,1.64,0,0,1,.39.61,2.44,2.44,0,0,1,.12.82,1.78,1.78,0,0,1-.76,1.56,3.8,3.8,0,0,1-2.18.53,5.94,5.94,0,0,1-1.53-.16,8.08,8.08,0,0,1-.81-0.25L105.31,95a7.47,7.47,0,0,0,.89.29,4.59,4.59,0,0,0,1.18.14h0Z" transform="translate(0 0)"/><path id="path7091" d="M111.44,96.67V86.27L113.1,86v3.56a4.45,4.45,0,0,1,.64-0.16,3.86,3.86,0,0,1,.72-0.07,3.72,3.72,0,0,1,1.44.24,2.27,2.27,0,0,1,.91.67,2.62,2.62,0,0,1,.49,1,5.85,5.85,0,0,1,.14,1.35v4h-1.66V92.89a5.46,5.46,0,0,0-.08-1,1.75,1.75,0,0,0-.25-0.66,1,1,0,0,0-.46-0.37,1.91,1.91,0,0,0-.71-0.12,3.48,3.48,0,0,0-.67.07,4.55,4.55,0,0,0-.51.12v5.72h-1.66Z" transform="translate(0 0)"/><path id="path7093" d="M124.34,95.5a6.17,6.17,0,0,0,1.17-.08V93.57l-0.4-.08a3.72,3.72,0,0,0-.58,0,3.86,3.86,0,0,0-.56,0,1.72,1.72,0,0,0-.51.15,0.92,0.92,0,0,0-.36.31,0.87,0.87,0,0,0-.14.5,0.88,0.88,0,0,0,.37.82,1.91,1.91,0,0,0,1,.23h0Zm-0.14-6.2a4.05,4.05,0,0,1,1.39.21,2.21,2.21,0,0,1,.9.58,2.16,2.16,0,0,1,.48.9,4.39,4.39,0,0,1,.14,1.16V96.5q-0.38.08-1.16,0.2a11.86,11.86,0,0,1-1.75.12,5.31,5.31,0,0,1-1.18-.12,2.49,2.49,0,0,1-.91-0.4,1.88,1.88,0,0,1-.59-0.71,2.47,2.47,0,0,1-.21-1.09,2.1,2.1,0,0,1,.24-1,2,2,0,0,1,.65-0.69,2.83,2.83,0,0,1,1-.38,5.38,5.38,0,0,1,1.13-.12,5.08,5.08,0,0,1,.58,0,5.33,5.33,0,0,1,.65.12V92.13a2.14,2.14,0,0,0-.07-0.55,1.14,1.14,0,0,0-.24-0.46,1.13,1.13,0,0,0-.45-0.31A2,2,0,0,0,124,90.7a6.25,6.25,0,0,0-1.06.08,4.67,4.67,0,0,0-.78.19L122,89.63a6.57,6.57,0,0,1,.92-0.22,7.2,7.2,0,0,1,1.29-.11h0Z" transform="translate(0 0)"/><path id="path7095" d="M130.53,95.47a2.19,2.19,0,0,0,1-.16,0.56,0.56,0,0,0,.3-0.54,0.7,0.7,0,0,0-.32-0.59,4.74,4.74,0,0,0-1.06-.51,8.43,8.43,0,0,1-.83-0.35,2.85,2.85,0,0,1-.65-0.43,1.78,1.78,0,0,1-.43-0.6,2.08,2.08,0,0,1-.16-0.86,1.87,1.87,0,0,1,.73-1.56,3.13,3.13,0,0,1,2-.57,6.05,6.05,0,0,1,1.21.12,5.83,5.83,0,0,1,.87.23L132.81,91a4,4,0,0,0-.7-0.23,4.26,4.26,0,0,0-1-.1,1.72,1.72,0,0,0-.82.17,0.57,0.57,0,0,0-.32.53,0.77,0.77,0,0,0,.06.32,0.69,0.69,0,0,0,.21.25,2.19,2.19,0,0,0,.4.23,6.1,6.1,0,0,0,.6.24,9.26,9.26,0,0,1,1,.43,2.72,2.72,0,0,1,.68.48,1.64,1.64,0,0,1,.39.61,2.44,2.44,0,0,1,.12.82,1.78,1.78,0,0,1-.76,1.56,3.8,3.8,0,0,1-2.18.53,5.94,5.94,0,0,1-1.53-.16,8.15,8.15,0,0,1-.81-0.25L128.47,95a7.47,7.47,0,0,0,.89.29,4.59,4.59,0,0,0,1.18.14h0Z" transform="translate(0 0)"/><path id="path7097" d="M137.3,87.58l1.66-.27v2.17h2.56v1.39H139v2.93a2.12,2.12,0,0,0,.27,1.24,1.09,1.09,0,0,0,.93.37,3.06,3.06,0,0,0,.8-0.1,5.3,5.3,0,0,0,.56-0.18l0.27,1.32a6.19,6.19,0,0,1-.76.25,4.11,4.11,0,0,1-1.1.13,3.47,3.47,0,0,1-1.29-.21,1.9,1.9,0,0,1-.82-0.6,2.37,2.37,0,0,1-.43-0.95,5.88,5.88,0,0,1-.12-1.27V87.58Z" transform="translate(0 0)"/><path id="path7099" d="M142.72,96.67V86.27l1.66-.27v3.56A4.45,4.45,0,0,1,145,89.4a3.86,3.86,0,0,1,.72-0.07,3.72,3.72,0,0,1,1.44.24,2.27,2.27,0,0,1,.91.67,2.62,2.62,0,0,1,.49,1,5.85,5.85,0,0,1,.14,1.35v4h-1.66V92.89a5.46,5.46,0,0,0-.08-1,1.75,1.75,0,0,0-.25-0.66,1,1,0,0,0-.46-0.37,1.91,1.91,0,0,0-.71-0.12,3.48,3.48,0,0,0-.67.07,4.55,4.55,0,0,0-.51.12v5.72h-1.66Z" transform="translate(0 0)"/><path id="path7101" d="M149.91,93.11a4.51,4.51,0,0,1,.28-1.66,3.5,3.5,0,0,1,.75-1.19,3.09,3.09,0,0,1,1.07-.71,3.32,3.32,0,0,1,1.24-.24,3,3,0,0,1,2.32.92,4,4,0,0,1,.83,2.75c0,0.09,0,.19,0,0.31a2.72,2.72,0,0,1,0,.31h-4.74a1.9,1.9,0,0,0,.61,1.34,2.32,2.32,0,0,0,1.57.47,5.16,5.16,0,0,0,1.11-.11,4.62,4.62,0,0,0,.79-0.23l0.22,1.36a2.68,2.68,0,0,1-.38.14,5.5,5.5,0,0,1-.55.14l-0.67.1a6.38,6.38,0,0,1-.73,0,4.42,4.42,0,0,1-1.65-.28,3.07,3.07,0,0,1-1.15-.78,3.21,3.21,0,0,1-.67-1.18,4.83,4.83,0,0,1-.22-1.49h0Zm4.82-.74a2.19,2.19,0,0,0-.1-0.65,1.57,1.57,0,0,0-.28-0.54,1.35,1.35,0,0,0-.45-0.36,1.45,1.45,0,0,0-.64-0.13,1.49,1.49,0,0,0-.67.14,1.52,1.52,0,0,0-.49.38,1.74,1.74,0,0,0-.31.54,2.89,2.89,0,0,0-.15.62h3.09Z" transform="translate(0 0)"/><path id="path7103" d="M164.61,92.89a3.49,3.49,0,0,0-.28-1.63,1.1,1.1,0,0,0-1.05-.5,5.15,5.15,0,0,0-.61,0l-0.49.07v5.8h-1.66v-7a11.2,11.2,0,0,1,1.26-.26,10.41,10.41,0,0,1,1.64-.12,3.27,3.27,0,0,1,1.22.19,2.35,2.35,0,0,1,.79.51,3.26,3.26,0,0,1,.38-0.23,3.85,3.85,0,0,1,.52-0.23,4.91,4.91,0,0,1,.61-0.17,3.11,3.11,0,0,1,.65-0.07,3.43,3.43,0,0,1,1.38.24,2,2,0,0,1,.85.67,2.62,2.62,0,0,1,.43,1,7.16,7.16,0,0,1,.12,1.34v4h-1.66V92.89a3.57,3.57,0,0,0-.27-1.63,1.1,1.1,0,0,0-1.06-.5,2.2,2.2,0,0,0-.76.13,2.46,2.46,0,0,0-.54.25,3.67,3.67,0,0,1,.15.73,7.78,7.78,0,0,1,0,.82v4h-1.66V92.89Z" transform="translate(0 0)"/><path id="path7105" d="M178.5,93.06a4.66,4.66,0,0,1-.25,1.55,3.42,3.42,0,0,1-.7,1.2,3.16,3.16,0,0,1-1.09.77,3.53,3.53,0,0,1-1.41.27,3.47,3.47,0,0,1-1.4-.27,3.17,3.17,0,0,1-1.09-.77,3.52,3.52,0,0,1-.71-1.2,4.53,4.53,0,0,1-.25-1.55,4.48,4.48,0,0,1,.25-1.55,3.47,3.47,0,0,1,.71-1.19,3.16,3.16,0,0,1,1.09-.76A3.52,3.52,0,0,1,175,89.3a3.57,3.57,0,0,1,1.39.27,3.08,3.08,0,0,1,1.09.76,3.55,3.55,0,0,1,.71,1.19A4.47,4.47,0,0,1,178.5,93.06Zm-1.7,0a2.81,2.81,0,0,0-.46-1.7,1.63,1.63,0,0,0-2.57,0,2.81,2.81,0,0,0-.46,1.7,2.86,2.86,0,0,0,.46,1.72,1.62,1.62,0,0,0,2.57,0A2.86,2.86,0,0,0,176.79,93.06Z" transform="translate(0 0)"/><path id="path7107" d="M183.9,91a5.38,5.38,0,0,0-.57-0.14,4.19,4.19,0,0,0-.85-0.08,3.41,3.41,0,0,0-.58.05l-0.43.1v5.76H179.8V89.82a9.1,9.1,0,0,1,1.2-.34,7.47,7.47,0,0,1,1.6-.16l0.38,0,0.44,0.05,0.43,0.08,0.33,0.09Z" transform="translate(0 0)"/><path id="path7109" d="M184.92,89.71a11.27,11.27,0,0,1,1.25-.26,10.76,10.76,0,0,1,1.7-.12,3.93,3.93,0,0,1,1.47.24,2.3,2.3,0,0,1,.94.67,2.57,2.57,0,0,1,.5,1,5.87,5.87,0,0,1,.14,1.34v4h-1.66V92.89a5.46,5.46,0,0,0-.08-1,1.75,1.75,0,0,0-.25-0.66,1,1,0,0,0-.47-0.37,2,2,0,0,0-.72-0.12,5.81,5.81,0,0,0-.66,0l-0.51.07v5.8h-1.66v-7Z" transform="translate(0 0)"/><path id="path7111" d="M194.24,96.67h-1.66V89.48h1.66v7.19Zm0.18-9.29a1,1,0,0,1-.3.74,1,1,0,0,1-.71.27,1,1,0,0,1-.73-0.27,1,1,0,0,1-.3-0.74,1,1,0,0,1,.3-0.76,1,1,0,0,1,.73-0.27,1,1,0,0,1,.71.27A1,1,0,0,1,194.42,87.37Z" transform="translate(0 0)"/><path id="path7113" d="M195.94,89.71a11.27,11.27,0,0,1,1.25-.26,10.76,10.76,0,0,1,1.7-.12,3.93,3.93,0,0,1,1.47.24,2.3,2.3,0,0,1,.94.67,2.57,2.57,0,0,1,.5,1,5.87,5.87,0,0,1,.14,1.34v4h-1.66V92.89a5.46,5.46,0,0,0-.08-1,1.75,1.75,0,0,0-.25-0.66,1,1,0,0,0-.47-0.37,2,2,0,0,0-.72-0.12,5.81,5.81,0,0,0-.66,0l-0.51.07v5.8h-1.66v-7Z" transform="translate(0 0)"/><path id="path7115" d="M204.89,92.89a2.2,2.2,0,0,0,.46,1.55,1.56,1.56,0,0,0,1.19.49,2.48,2.48,0,0,0,.75-0.11,2.14,2.14,0,0,0,.57-0.26V90.82l-0.44-.08a5.19,5.19,0,0,0-.66,0,1.68,1.68,0,0,0-1.39.6,2.44,2.44,0,0,0-.48,1.57h0Zm4.63,3.05a3.25,3.25,0,0,1-.87,2.52,3.86,3.86,0,0,1-2.67.8,7.39,7.39,0,0,1-1.29-.11,7.21,7.21,0,0,1-1.13-.29l0.3-1.42a5.17,5.17,0,0,0,1,.29,5.9,5.9,0,0,0,1.18.11,2,2,0,0,0,1.43-.41,1.63,1.63,0,0,0,.43-1.22V95.92a4.26,4.26,0,0,1-.65.25,3.17,3.17,0,0,1-.93.12,3.48,3.48,0,0,1-1.26-.22,2.64,2.64,0,0,1-1-.65,3,3,0,0,1-.63-1.07,4.42,4.42,0,0,1-.23-1.48,4.19,4.19,0,0,1,.24-1.44,3.1,3.1,0,0,1,.7-1.13,3.21,3.21,0,0,1,1.12-.73,4,4,0,0,1,1.5-.26,9.17,9.17,0,0,1,1.54.12q0.73,0.12,1.24.26v6.23Z" transform="translate(0 0)"/><path id="path7117" d="M213.16,89.7q0,1.14-.08,2.09t-0.21,1.91h-1.18q-0.14-1-.22-1.92t-0.08-2.08V87.14h1.77V89.7Zm0.21,6.06a1,1,0,0,1-.32.78,1.16,1.16,0,0,1-1.56,0,1,1,0,0,1-.32-0.78,1,1,0,0,1,.32-0.79A1.14,1.14,0,0,1,213,95,1.06,1.06,0,0,1,213.37,95.76Z" transform="translate(0 0)"/></g></g></g></svg>